<?xml version="1.0" encoding="UTF-8"?>
<svg id="Layer_2" data-name="Layer 2" xmlns="http://www.w3.org/2000/svg" xmlns:xlink="http://www.w3.org/1999/xlink" viewBox="0 0 443.2 121.02">
  <defs>
    <style>
      .cls-1 {
        mask: url(#mask);
      }

      .cls-2 {
        fill: url(#linear-gradient);
      }

      .cls-3 {
        fill: #fff;
      }

      .cls-4 {
        fill: #3b3a36;
      }
    </style>
    <mask id="mask" x="0" y="0" width="88.25" height="121.02" maskUnits="userSpaceOnUse">
      <g>
        <polygon class="cls-3" points="21.47 85.23 64.67 109.19 44.01 120.65 .56 96.78 .56 23.72 21.47 12.47 21.47 85.23"/>
        <polygon class="cls-3" points="87.69 47.58 64.14 60.31 87.69 73.25 87.69 96.41 66.86 107.97 66.86 72.87 44.17 60.48 66.86 48.15 66.86 35.56 23.41 11.41 44.01 .33 87.69 24.06 87.69 47.58"/>
      </g>
    </mask>
    <linearGradient id="linear-gradient" x1="0" y1="60.51" x2="88.25" y2="60.51" gradientUnits="userSpaceOnUse">
      <stop offset="0" stop-color="#ff8a3d"/>
      <stop offset="1" stop-color="#ff3b6a"/>
    </linearGradient>
  </defs>
  <g id="Layer_1-2" data-name="Layer 1">
    <g>
      <g class="cls-1">
        <rect class="cls-2" width="88.25" height="121.02"/>
      </g>
      <g>
        <path class="cls-4" d="M116.92,103.38V16.12h14.31v37.77c3.75-6.45,11.49-10.32,20.29-10.32,16.54,0,26.62,12.9,26.62,31.2s-10.91,30.14-27.56,30.14c-8.68,0-16.07-3.87-19.47-10.56l-.94,9.03h-13.25ZM147.65,91.77c10.09,0,16.07-7.27,16.07-17.59s-5.98-17.71-16.07-17.71-16.3,7.27-16.3,17.71,6.45,17.59,16.3,17.59Z"/>
        <path class="cls-4" d="M186.94,86.84c0-10.67,7.74-17.36,21.46-18.41l17.36-1.29v-1.29c0-7.86-4.69-11.02-11.96-11.02-8.44,0-13.14,3.52-13.14,9.62h-12.2c0-12.55,10.32-20.76,26.04-20.76s25.22,8.44,25.22,24.51v35.19h-12.55l-1.06-8.56c-2.46,5.98-10.32,10.09-19.35,10.09-12.31,0-19.82-7.16-19.82-18.06ZM225.87,79.92v-3.05l-12.08.94c-8.91.82-12.31,3.75-12.31,8.44,0,5.28,3.52,7.86,9.97,7.86,8.8,0,14.43-5.28,14.43-14.19Z"/>
        <path class="cls-4" d="M279.36,43.68c15.83,0,26.62,8.8,28.15,22.75h-14.31c-1.64-6.57-6.45-9.97-13.25-9.97-9.15,0-15.25,6.92-15.25,17.83s5.63,17.71,14.78,17.71c7.16,0,12.2-3.52,13.72-9.85h14.43c-1.76,13.49-13.02,22.75-28.15,22.75-17.59,0-29.09-12.2-29.09-30.61s11.85-30.61,28.97-30.61Z"/>
        <path class="cls-4" d="M345.85,43.8c17.95,0,30.96,12.43,30.96,30.49s-13.02,30.49-30.96,30.49-30.96-12.43-30.96-30.49,13.02-30.49,30.96-30.49ZM345.85,92c9.85,0,16.65-7.16,16.65-17.71s-6.8-17.71-16.65-17.71-16.65,7.15-16.65,17.71,6.8,17.71,16.65,17.71Z"/>
        <path class="cls-4" d="M388.19,103.38v-57.94h13.25l1.17,7.51c3.63-5.86,10.67-9.27,18.53-9.27,14.54,0,22.05,9.03,22.05,24.04v35.65h-14.31v-32.25c0-9.73-4.81-14.43-12.2-14.43-8.8,0-14.19,6.1-14.19,15.48v31.2h-14.31Z"/>
      </g>
    </g>
  </g>
</svg>